<svg width="280" height="300" viewBox="0 0 280 300" fill="none" xmlns="http://www.w3.org/2000/svg">
<g id="Frame 1" clip-path="url(#clip0)">
<g id="Group">
<g id="Group_2">
<path id="Vector" d="M191.287 39.5897C169.701 39.5897 150.61 28.2044 139.754 11H63.016C52.1604 28.2044 33.1943 39.5897 11.4831 39.5897C6.24243 39.5897 2 43.8908 2 49.204V61.6012H200.895V49.204C200.77 43.8908 196.528 39.5897 191.287 39.5897Z" fill="black"/>
<path id="Vector_2" d="M127.276 11H75.4937V289.939H127.276V11Z" fill="black"/>
<g id="Group_3">
<path id="Vector_3" d="M127.276 89.3055H107.437V95.5041H127.276V89.3055Z" fill="#6E6E6E"/>
<path id="Vector_4" d="M127.276 118.148H107.437V124.347H127.276V118.148Z" fill="#6E6E6E"/>
<path id="Vector_5" d="M127.276 146.864H107.437V153.063H127.276V146.864Z" fill="#6E6E6E"/>
<path id="Vector_6" d="M127.276 175.581H107.437V181.779H127.276V175.581Z" fill="#6E6E6E"/>
<path id="Vector_7" d="M127.276 204.423H107.437V210.622H127.276V204.423Z" fill="#6E6E6E"/>
<path id="Vector_8" d="M127.276 233.139H107.437V239.338H127.276V233.139Z" fill="#6E6E6E"/>
<path id="Vector_9" d="M127.276 261.982H107.437V268.181H127.276V261.982Z" fill="#6E6E6E"/>
</g>
<g id="Group_4">
<g id="Group_5">
<path id="Vector_10" d="M121.412 18.4638C122.652 18.4638 123.658 17.4442 123.658 16.1866C123.658 14.9291 122.652 13.9096 121.412 13.9096C120.171 13.9096 119.166 14.9291 119.166 16.1866C119.166 17.4442 120.171 18.4638 121.412 18.4638Z" fill="#59595A"/>
<path id="Vector_11" d="M81.3583 18.4638C82.5987 18.4638 83.6043 17.4442 83.6043 16.1866C83.6043 14.9291 82.5987 13.9096 81.3583 13.9096C80.1179 13.9096 79.1123 14.9291 79.1123 16.1866C79.1123 17.4442 80.1179 18.4638 81.3583 18.4638Z" fill="#59595A"/>
</g>
<g id="Group_6">
<path id="Vector_12" d="M121.412 57.8062C122.652 57.8062 123.658 56.7867 123.658 55.5291C123.658 54.2715 122.652 53.2521 121.412 53.2521C120.171 53.2521 119.166 54.2715 119.166 55.5291C119.166 56.7867 120.171 57.8062 121.412 57.8062Z" fill="#59595A"/>
<path id="Vector_13" d="M81.3583 57.8062C82.5987 57.8062 83.6043 56.7867 83.6043 55.5291C83.6043 54.2715 82.5987 53.2521 81.3583 53.2521C80.1179 53.2521 79.1123 54.2715 79.1123 55.5291C79.1123 56.7867 80.1179 57.8062 81.3583 57.8062Z" fill="#59595A"/>
</g>
</g>
</g>
<g id="Group_7">
<path id="Vector_14" d="M282 289.939H149.736V82.9803L282 289.939ZM186.296 252.874H214.745L186.296 208.218V252.874Z" fill="black"/>
<path id="Vector_15" d="M169.326 289.939H163.836V277.163H169.326V289.939ZM186.67 277.163H181.18V289.939H186.67V277.163ZM204.139 277.163H198.649V289.939H204.139V277.163ZM221.608 277.163H216.118V289.939H221.608V277.163ZM238.952 277.163H233.462V289.939H238.952V277.163ZM256.421 277.163H250.93V289.939H256.421V277.163Z" fill="#6E6E6E"/>
<g id="Group_8">
<path id="Vector_16" d="M234.692 216.022L224.42 222.749L227.06 226.893L237.332 220.167L234.692 216.022Z" fill="#6E6E6E"/>
<path id="Vector_17" d="M263.645 261.157L253.276 267.965L255.921 272.107L266.29 265.299L263.645 261.157Z" fill="#6E6E6E"/>
<path id="Vector_18" d="M244.3 231.077L234.028 237.803L236.669 241.948L246.94 235.221L244.3 231.077Z" fill="#6E6E6E"/>
<path id="Vector_19" d="M225.083 200.968L214.812 207.695L217.452 211.839L227.724 205.113L225.083 200.968Z" fill="#6E6E6E"/>
<path id="Vector_20" d="M253.908 246.131L243.636 252.857L246.277 257.002L256.548 250.275L253.908 246.131Z" fill="#6E6E6E"/>
<path id="Vector_21" d="M167.571 110.587L157.307 117.326L159.952 121.467L170.216 114.728L167.571 110.587Z" fill="#6E6E6E"/>
<path id="Vector_22" d="M186.769 140.659L176.497 147.386L179.138 151.53L189.409 144.803L186.769 140.659Z" fill="#6E6E6E"/>
<path id="Vector_23" d="M177.147 125.629L166.875 132.356L169.516 136.5L179.787 129.773L177.147 125.629Z" fill="#6E6E6E"/>
<path id="Vector_24" d="M215.58 185.846L205.308 192.572L207.949 196.717L218.22 189.99L215.58 185.846Z" fill="#6E6E6E"/>
<path id="Vector_25" d="M196.364 155.737L186.092 162.464L188.732 166.608L199.004 159.882L196.364 155.737Z" fill="#6E6E6E"/>
<path id="Vector_26" d="M205.972 170.792L195.7 177.518L198.34 181.663L208.612 174.936L205.972 170.792Z" fill="#6E6E6E"/>
</g>
</g>
</g>
</g>
<defs>
<clipPath id="clip0">
<rect width="280" height="300" fill="white"/>
</clipPath>
</defs>
</svg>
